<?xml version="1.0" standalone="no"?>
<!DOCTYPE svg PUBLIC "-//W3C//DTD SVG 20010904//EN"
 "http://www.w3.org/TR/2001/REC-SVG-20010904/DTD/svg10.dtd">
<svg version="1.0" xmlns="http://www.w3.org/2000/svg"
 width="52.000000pt" height="51.000000pt" viewBox="0 0 52.000000 51.000000"
 preserveAspectRatio="xMidYMid meet">

<g transform="translate(0.000000,51.000000) scale(0.100000,-0.100000)"
fill="#000000" stroke="none">
<path d="M358 469 c-41 -21 -51 -56 -24 -81 12 -11 12 -17 1 -39 -17 -32 -43
-54 -64 -54 -9 0 -30 17 -48 38 -29 35 -31 39 -18 64 17 33 5 60 -32 69 -33 9
-57 -6 -63 -39 -3 -14 -17 -35 -33 -47 -74 -58 -83 -198 -20 -297 l24 -38 -6
35 c-16 87 -17 135 -3 153 12 17 23 18 81 12 l67 -7 0 -115 c0 -87 3 -114 13
-110 8 2 12 37 14 120 0 64 4 121 8 127 3 5 15 10 26 10 14 0 21 -9 26 -30 7
-36 23 -40 23 -6 0 22 3 23 53 18 76 -7 90 -23 84 -97 -2 -33 -7 -68 -12 -77
-14 -33 13 -18 29 16 27 56 39 129 31 182 -6 40 -15 57 -52 92 -42 40 -44 46
-33 67 15 29 7 55 -17 54 -10 -1 -35 -10 -55 -20z m-158 -175 c40 -16 45 -34
10 -34 -21 0 -83 49 -63 50 7 0 31 -7 53 -16z m185 6 c-3 -5 -18 -10 -33 -9
-24 0 -25 1 -7 9 28 12 47 12 40 0z"/>
</g>
</svg>
